<svg width="1024" height="1024" viewBox="0 0 1024 1024" fill="none" xmlns="http://www.w3.org/2000/svg">
  <rect width="1024" height="1024" fill="#F6EFE3"/>
  <rect x="104" y="104" width="816" height="816" rx="220" fill="url(#bg)"/>

  <rect x="220" y="770" width="584" height="28" rx="14" fill="#4A3022"/>
  <rect x="238" y="818" width="548" height="20" rx="10" fill="#4A3022"/>

  <path d="M314 714C314 667.608 351.608 630 398 630H638C684.392 630 722 667.608 722 714V730H314V714Z" fill="#4A3022"/>

  <path d="M294 486C294 412.024 353.976 352 427.952 352H549.992C621.673 352 687.295 392.089 720.051 455.929C752.808 519.77 747.151 596.537 705.405 654.854L694.34 670.311C665.994 709.908 620.326 733.378 571.624 733.378H448.237C390.033 733.378 337.153 699.543 311.904 646.853L304.478 631.36C294.74 611.041 289.667 588.803 289.667 566.27V486H294Z" fill="#B1261E"/>
  <path d="M326 496C326 435.249 375.249 386 436 386H547.664C606.537 386 660.55 419.067 687.363 471.504C714.176 523.942 709.497 586.989 675.227 634.889L666.58 646.973C643.916 678.641 607.361 697.425 568.42 697.425H455.422C408.868 697.425 366.498 670.369 346.305 628.427L340.501 616.369C330.968 596.555 326 574.854 326 552.865V496Z" fill="#CF372A"/>
  <path d="M366 508C366 461.608 403.608 424 450 424H537.802C582.88 424 624.225 449.302 644.708 489.351C665.19 529.401 661.614 577.555 635.443 614.141L629.764 622.08C612.382 646.38 584.34 660.799 554.465 660.799H465.208C429.642 660.799 397.259 640.088 381.832 608.042L378.021 600.121C370.199 583.871 366.124 566.093 366.124 548.059L366 508Z" fill="#E14C36"/>

  <path d="M284 398C308.202 359.538 350.487 336.267 395.934 336.267H500.673C481.696 317.59 455.985 307.107 429.363 307.107H373.147C325.819 307.107 282.49 333.602 261.009 375.679L234.46 427.666H282.238L284 398Z" fill="#F7E9D4"/>
  <path d="M300 414C321.894 380.816 358.985 360.851 398.735 360.851H477.954C489.771 360.851 499.352 370.431 499.352 382.249C499.352 392.318 492.311 401.015 482.482 403.11L381.648 424.599C359.925 429.228 340.103 440.272 324.703 456.381L303.563 478.489C296.145 486.247 283.817 486.523 276.059 479.105C268.301 471.687 268.025 459.359 275.443 451.601L300 414Z" fill="#E9D9C4"/>
  <rect x="252" y="454" width="32" height="212" rx="16" fill="#E2D2BD"/>
  <rect x="262" y="468" width="12" height="184" rx="6" fill="#F8F0E2"/>
  <ellipse cx="315" cy="431" rx="34" ry="32" fill="#F3E7D4"/>

  <path d="M305 411H568.296C622.146 411 671.111 442.379 694.534 491.032C698.091 498.421 692.699 506.851 684.499 506.851H387.185C360.661 506.851 335.083 497.027 315.381 479.27L288.242 454.808C273.032 441.094 282.735 416 303.212 416L305 411Z" fill="#9E221B"/>

  <circle cx="714" cy="302" r="70" fill="#FFF1DB" stroke="#E3D4BF" stroke-width="14"/>
  <path d="M714 274V302L742 321" stroke="#4A3022" stroke-width="20" stroke-linecap="round" stroke-linejoin="round"/>
  <circle cx="714" cy="302" r="8" fill="#4A3022"/>

  <defs>
    <linearGradient id="bg" x1="162" y1="146" x2="862" y2="880" gradientUnits="userSpaceOnUse">
      <stop stop-color="#FFB15C"/>
      <stop offset="0.44" stop-color="#E86C2E"/>
      <stop offset="1" stop-color="#7A2618"/>
    </linearGradient>
  </defs>
</svg>
